<?xml version="1.0" encoding="UTF-8"?>
<svg xmlns="http://www.w3.org/2000/svg" xmlns:xlink="http://www.w3.org/1999/xlink" version="1.1" viewBox="0 0 319.1 56.3">
  <defs>
    <style>
      .cls-1 {
        fill: none;
      }

      .cls-2 {
        fill: #f3982d;
      }

      .cls-3 {
        fill: #ed6d1f;
      }

      .cls-4 {
        fill: #f8b62d;
      }

      .cls-5 {
        clip-path: url(#clippath);
      }
    </style>
    <clipPath id="clippath">
      <rect class="cls-1" x=".6" y=".6" width="317.9" height="55.1"/>
    </clipPath>
  </defs>
  <!-- Generator: Adobe Illustrator 28.7.2, SVG Export Plug-In . SVG Version: 1.2.0 Build 154)  -->
  <g>
    <g id="_レイヤー_1" data-name="レイヤー_1">
      <g class="cls-5">
        <g>
          <path class="cls-3" d="M205.4,20.5h4.2l-.4,1.7h10.9l-.9,3.4h-25.7l.9-3.4h10.7l.4-1.7ZM208.9,39.4l-1.6,6h1c.3,0,.6,0,.7-.7l2-7.5h-15.5l-2.7,10.5h-4.1l3.5-13.6h20.9c3,0,2.2,2,2.2,2l-2.2,8.7c-.2.6-.7,2.9-3.2,2.9h-4.1l.2-2.3h-10.9l1.8-7.1h11c1.6,0,1.1,1.1,1.1,1.1M214.7,28.6l-1.2,4.6h-18.3l1.7-6.7h16.2c2.3,0,1.6,2.1,1.6,2.1M210,29h-9.8l-.4,1.4h10.3l.2-.9s.2-.5-.3-.5M204.2,41h-4.2l-.4,1.6h4.7l.3-1.1s.2-.5-.4-.5"/>
          <path class="cls-3" d="M221.4,37.8h14.5l.4-1.3h-17.3l.6-2.1s.3-1.2,2.6-1.2h8.5l.4-1.3h-9l1-3.3-1.5-2.6c2.5-1.5,4.5-4,5.5-5.4l4.2.4c-.3.5-.7,1.2-1,1.6h5.1l-.5,2c1.2-1.1,2.1-2.1,3.4-4l4,.3c-.4.7-.7,1.3-1,1.6h7.3l-.9,3.3h-4.8c.1.5.2,1.1.3,1.6l-3.6.6c0-.9,0-1.4-.2-2.3h-1c-.6.6-1.1,1.2-2.1,2l-.2.8h9.2l-.6,2.2s-.2,1.1-1.6,1.1h-7.9l-.4,1.3h10.8l-.7,2.3s-.4,1.1-1.5,1.1h-3.2l-.4,1.3h4.2l-1,3.4h-4.2l-.9,3.1c-.5,1.6-1.1,3.5-3.6,3.5h-5.7l.3-2.4h3.8c.5,0,.8,0,1-.7l1.1-3.5h-9.9c.8,1.1,1.6,2.3,2.1,3.7l-3.5,2.2c-.3-.8-1.2-2.9-2.7-4.9l1.8-.9h-4.7l.6-2.1s.4-1.2,2.8-1.2M235.2,27.5l-2.2-1.5.4-.3h-2.6c.2.9.2,1.1.2,1.5l-3.5.6c0-.6,0-1.8,0-2.1h0c-1.4,1.4-2.4,2.1-3.4,2.8h8l.3-1.1h2.8Z"/>
          <path class="cls-3" d="M271.3,28.5c-.1.4-.5,1.7-.5,1.7h-14.9l.6-2.4h14.3c.4,0,.6.2.5.7M252.1,24.9l-1.9,7.1h3.6l-.3,1.2h10.6l-5,3.1-.3,1.1h-10.7l-.8,3h10.7l-1,4c-.3,1-.5,1.1-1.3,1.1h-3.6v2.4s6.6,0,6.6,0c1.7,0,3.1-1.2,3.5-3l1.2-4.5h10.5l.8-3h-10l6.8-3.9.4-1.5h3.6s.8-2.9,1.2-4.5c.4-1.6,0-2.6-1.9-2.6h-.4c1.2-1.3,2.2-2.9,2.5-3.3l-4.2-1c-.3.6-1.5,2.7-2.8,4.3h-2.3c0-1.2-.3-3.1-.7-4.4l-4.5,1c.4,1.7.5,2.1.7,3.4h-3.4c-.1-1.3-.5-2.7-1.1-4.2l-4.5,1.1c.2.6.6,1.6.9,3h-2.9Z"/>
          <path class="cls-3" d="M288.8,31.3c2.4-1.2,4.7-3,6-4.3h-3.9l1-3.6h5.9l.6-2.4h5.2l-.6,2.4h6.1l-1,3.6h-13.2l2.8,2c-1.5,1.7-4.3,3.9-7.3,5.6l-1.5-3.3ZM277.9,37c2-2.5,3.1-4,4.8-7.8h-2.3l1-3.6h3l1.2-4.6h4.4l-1.2,4.6h2.3l-1,3.6h-2.3l-.5,2c.6,1.9,1.2,3.3,2.2,4.7l-2.5,3.2c-.4-.6-.9-1.4-1.2-2.5l-3,11.2h-4.4l2.9-10.9c-1.2,2.3-2.1,3.3-3.6,5.1v-5ZM303.9,27c.8,1.5,2.1,3,3.5,4.1l-3.1,3.7c-1.9-1.5-3-2.8-4.5-5.8l4.1-2ZM298.1,41.3c3-3.2,5.3-6.6,5.3-6.6l-3.6-2s-.7,1.2-3.4,4.4c-1-3.2-1.1-4.4-1.1-4.4l-4.6,2s.5,3.4,1.8,6.6c-4.1,3.9-8.6,6.5-8.6,6.5h6.7s1.4-.9,3.7-2.9c1.3,2.1,2.1,2.9,2.1,2.9h6.7s-3.1-2.6-5.1-6.5"/>
          <g>
            <g>
              <path class="cls-3" d="M54.9,44.8c1-2,1.1-4.2,2.1-6.1,0-1.7,1.3-2.6,1.6-4.3.9-1.9,2.3-4,3.3-6.2.8-1.1,1.9-2.2,2.2-3.6,1.3-1,2.9-3,3.4-4.3,1.3,0,1.2-1.3,2.3-1.6,0-.7.8-.9,1.2-1.4-.1.1-.2,0-.4,0,0-.4.4-.5.6-.5l.3.2.2-.2-.3-.2c0-.5.4-.7.8-.7v.2c.4.2.6-.2.7-.4-.1-.6,0-.9.3-1.1,1.7-1.8,3.8-2.9,5.4-5,.3.1.6.2.7-.2-1.3.3-1.8,1.2-3,1.6.3.5-.3.6-.2,1-1-.5-1.7,1.5-2.4.4.3-.2.7-.1.7-.5-.2-.2-.5-.2-.7-.5,0,.6-.4.7-.8,1.1-.1,0-.3,0-.4,0v.8c-.1,0-1,0-1,0v.7c-.4.1-.8-.1-1.1,0-.2-.5.1-.8.4-1.1,0,0,0-.2-.1-.3l-.5.2c0,.2.3.4,0,.5-.2.1-.5,0-.7-.3v-.2s.3,0,.3,0c-.1,0-.1-.1-.2-.2.4-.4,1.8,0,1.6-1.2.3-.8,1.6-.4,1.5-1.3,1-.9,2.6-1.4,3.6-2.7.3,0,.4-.3.6-.5-.9.3-2.4.3-2.6,1.6-1.2,0-1.7,1.6-2.9,1.6.9-1.1,1.9-2.1,2.8-3.1-.4-.2-.7.4-1.1.5-1.3.7-2.7,2.1-3.9,2.9l-.3-.7c-.1.1-.3.2-.4.4,0,.2.4.2.4.4-.4.6-.4-.3-.7,0-1.3.8-2.3,2.1-3.6,2.9.2.4-.1.3-.4.5-.2,0-.4,0-.5.2.1.1,0,.3.2.5-.5.3-.9-.2-1.3,0,0-.6.5-1,.9-1.3-1.8.9-3.3,2.7-4.9,4-2.4,2.9-5.6,5.6-7.1,8.7-.8,1.1-1.5,2-2.2,3.3.4,1.5-1.9,1.7-1.3,3.3-.8,1-.9,2.5-.5,3.6-.7.6,0,1.6-.4,2.2.7,1.8.6,3.3,1.7,4.9.7,1.9,1.3,4.5,3.4,5.2,1.8,0,2.3-2,2.8-3.2"/>
              <path class="cls-2" d="M28.1,42.4c-.8.6,0,2.3-.9,3.2,1.2-4.3-1.6-7.8-4.4-10.5-.9.2-.9-1.2-1.9-1.3-1.4,0-.9-2-2.4-1.8-.7-1-2-1.7-2.9-2.1-1.2.2-1.3-1.4-2.4-1-.2-.6-1-.9-1.4-.4-.8-.7-1.4-.5-2.2-1.1,2.2-.2,4.2.8,6.3,1.4.3,1.2,1.5,0,1.9.8.3-.6-.5-.8-.9-1.2-.6.2-.5-.6-1-.5-1.1-.9-2.8-1.4-4.2-2,0-.4.3-.2.6-.2.2.3.7.2.9,0,.2-.3.4-.3.8-.3.4.3.8.7,1.4.5,0-1.1,1.2-1,1.8-1.5h.1c0,.5-.6.3-.8.7,0,.4.5.4.8.2,0-.2.3-.3.2-.5,1,.8,1.1-.7,2,0,.8.4,1.6.5,2.4,1.1,3.2,1.2,6,3.5,8.3,5.9,2.4,2.5,4.1,5.9,3.5,9.5-.4,1.5-.8,2.9-2.2,3.9-1.1.6-2.5,1-3.6,1.3-.2-1.2.4-2.7.1-4.1"/>
              <path class="cls-4" d="M38.1,29v-.8c-.3,1.3-2.4.6-2.1,2.1-1.3,1.5-1.3,3.8-.7,5.6.6,1.5,2.1,1.7,3.5,2.1,3.3-.4,5.1-3.6,6.1-6.4-.1-.8-.8,0-1.2-.4-1.4-1.5-.2-3.5-.8-5-1.5-.2-1.3,2.9-2.6,1.6,0-.5.3-.7,0-1.1-.8.6-.6,2.5-2.2,2.3"/>
            </g>
            <g>
              <path class="cls-3" d="M129.1,32.3l-1.2,4.6h-20.6c-2.3,0-2.4-4.6-2.4-4.6h24.2Z"/>
              <path class="cls-3" d="M105.8,23h-7.6c.5-.6.8-1.1,1.2-1.7l-4.1-.4c-1.2,1.8-2.7,3.5-4.4,4.9l.7-2.7h-5.7c.6-.8.8-1.1,1.2-1.8l-3.7-.4c-2.4,3.5-4.5,4.9-6.1,5.9l2.6,1.7c2.1-1.4,3.6-2.2,3.9-2.4h.7c.1.6.2,1.6.2,2.6h-5.2l-.9,3.5h8.5l-.3,1.2h-4.3c-2.7,0-4.7,2.1-5.8,3.5-1.1,1.4-2.2,4.6-2.2,4.6h6.2s-.4.6-2.7,2.4c-2.3,1.8-6.2,4.3-6.2,4.3h5.6c4.1-2.5,3.7-2.2,6-4.1.3-.2.6-.5.8-.7l-1.3,4.8h1.5,0s3.7,0,3.7,0l1.8-6.7h4.9c-1.3,3.9-1.7,4.3-3.1,4.2h-1.5l-.2,2.5h3.6c1.1,0,3.2-.2,4.2-1.5,1-1.3,3.2-8.1,3.4-8.8h-10.3l.3-1.2h4.3c3.2,0,5.5-4.5,5.9-5.3.4-.9,1-2.6,1-2.6h-3.6l2.4-.6c0-.6-.3-1.8-.4-2.1h4.3l.8-3ZM81.9,37.8s0,0,.2-.4c.3-.5.9-.8,2.7-.8h1.2l-.3,1.2h-3.7ZM95.2,32.7c-.3.5-.8.5-2.5.5h-.6l.3-1.2h3.2s0,.1-.4.6M86,28.6l2.8-.6c-.1-1.1,0-1-.3-2.1h2.1c-.4.3-.7.6-1.1.8l3.5,1.7c.9-.4,1.6-1.1,3.2-2.5h.8c.2,1,.3,2.1.3,2.6h-11.3Z"/>
              <path class="cls-3" d="M154.4,28.9c-.1.4-.4,1.7-.4,1.7h-14.9l.6-2.4h14.2c.4,0,.6.2.5.7M135.3,25.3l-1.8,7h3.6l-.3,1.2h10.5l-5,3.1-.3,1h-10.6l-.8,3h10.6l-1,4c-.3,1-.5,1.1-1.3,1.1h-3.5v2.4s6.6,0,6.6,0c1.7,0,3-1.2,3.5-2.9l1.2-4.5h10.4l.8-3h-10l6.8-3.9.4-1.5h3.5s.8-2.9,1.2-4.5c.4-1.5,0-2.6-1.9-2.6h-.4c1.1-1.3,2.2-2.9,2.4-3.3l-4.2-1c-.3.6-1.5,2.7-2.8,4.3h-2.3c0-1.2-.3-3.1-.7-4.3l-4.5,1c.4,1.7.5,2.1.7,3.4h-3.4c-.1-1.3-.5-2.7-1.1-4.1l-4.5,1.1c.2.6.6,1.6.9,3h-2.9Z"/>
              <path class="cls-3" d="M184.2,29.8h-6.5l.7-2.6h5.8c.4,0,.7.3.6.8-.1.5-.5,1.8-.5,1.8M173.9,36.7s.3-1.3-.7,2.6c-1.8,6.9-7.7,8.8-7.7,8.8h5.8s4.3-1.6,6.1-8.3c1.2-4.7.8-3.1.8-3.1h.9l-2.2,8.6c-.5,1.8-.5,2.8,1.6,2.8h4c2.3,0,3.1-1.3,4.6-6.5l-3-.7c-.2.6-.4,1.4-.8,2.6,0,.3-.3.8-.7.8h-.4c-.5,0-.4-.5-.3-.7l1.8-6.7h4.5l.7-2.8h-16.7l-.3,1.3c.1-1.9-1.3-3.1-1.3-3.1l4.1-7.7.7-2.7h-9.1l-6.9,26.5h4.2l6.2-23.7h1.2s-2.9,6.7-3.7,7.9c.7,1.5.9,3.1.8,4.3-.1,1.5-1.1,3.6-2.1,3.6h-.8v2.5h1.4c3.2,0,4.7-4.7,5-6h2.5ZM189.1,30.3s0-.3.7-2.7c.6-2.4-.5-3.1-2.2-3.1h-2.7l.9-3.4h-5l-.9,3.4h-5.4l-1.5,5.8h1.8l-.6,2.3h12.3l.6-2.3h2Z"/>
            </g>
          </g>
        </g>
        <g>
          <path class="cls-3" d="M83.6,14.1c-.5.3-1,.6-1.1.9-.1.5,1.5.5,2,.5,1.4,0,2.5-.2,3.2-.4l-.3,1.6c-1.1.2-2.1.3-3.1.3s-3.9,0-3.4-1.9c.2-.7.8-1.3,2-2l.8.9ZM87.7,12.2c-.5,0-1.5-.3-3.1-.3s-1.8,0-2.3.1l.5-1.6c.5,0,1.2-.1,2.1-.1,1.6,0,2.7.2,3.2.3l-.5,1.5Z"/>
          <path class="cls-3" d="M91.4,14.1c-.5.3-1,.6-1.1.9-.1.5,1.5.5,2,.5,1.4,0,2.5-.2,3.2-.4l-.3,1.6c-1.1.2-2.1.3-3.1.3s-3.9,0-3.4-1.9c.2-.7.8-1.3,2-2l.8.9ZM95.6,12.2c-.5,0-1.5-.3-3.1-.3s-1.8,0-2.3.1l.5-1.6c.5,0,1.2-.1,2.1-.1,1.6,0,2.7.2,3.2.3l-.5,1.5Z"/>
          <path class="cls-3" d="M100,10.3c-.4.7-1.1,2.1-1.5,3.9-.4,1.5-.4,2.4-.4,2.9l-1.6.2c0-.4,0-1.4.5-2.9.5-1.9,1.2-3.4,1.5-4.1l1.5.2ZM103.5,16.6c-.4,0-1.2.2-2.1.2-1.4,0-2.7-.2-2.4-1.7.1-.5.4-.9.6-1.1l1.2.2c-.2.2-.4.4-.4.6,0,.4.2.5,1.3.5s1.8-.1,2.1-.2l-.5,1.5ZM100.6,10.8c.9,0,1.7-.2,2.6-.2s1.3,0,1.6,0l-.4,1.5c-.2,0-.8,0-1.5,0-1.2,0-2.1.1-2.6.2l.4-1.5Z"/>
          <path class="cls-3" d="M108.7,9.8l1.5.2-.5,1.1c.7,0,1,0,1.7,0l-.6,1.4c-.6,0-1.2,0-1.8,0l-.3.6c.5,0,1.4,0,1.9,0l-.6,1.5c-.9,0-1.7,0-2,0,0,.1,0,.2-.1.4,0,.3-.3,1,1.1,1s1.6-.3,1.8-1c.1-.4,0-.8,0-1.2l1.6-.5c.2.6.2,1.1,0,1.8-.6,2.3-3.2,2.3-3.7,2.3s-2.9,0-2.3-2.3c0-.2.2-.5.2-.6-.9,0-1.2-.2-1.4-.3l.7-1.4c.2,0,.5.2,1.4.3l.3-.6c-.4,0-.9,0-1.4-.2l.6-1.4c.5.1.9.2,1.5.2l.6-1.3Z"/>
          <path class="cls-3" d="M117.2,16.2c.3,0,1.9-.2,2.2-1.4.1-.4,0-.7-.3-1-1.3,1.7-3.3,3.3-4.9,3.3s-1.4-.6-1.1-1.7c.2-.7.8-2,3-2.7l.2-.6c-.7,0-.9,0-1.8,0l.4-1.4c1.1,0,1.7,0,1.9,0,.1-.3.2-.5.4-.9h1.4c-.2.6-.3.7-.4.9,1.5,0,2.6-.3,3.1-.4l-.3,1.4c-.5,0-1.7.2-3.4.3,0,.2,0,.2-.1.3.4,0,.7,0,.8,0,1.7,0,3,.8,2.5,2.5-.6,2.4-3.2,2.6-3.7,2.7v-1.3ZM114.5,15.3c0,.1,0,.4.2.4s.4,0,.6-.2c0-.5.2-1,.3-1.5-.8.5-1.1,1-1.1,1.2ZM116.9,14.6c.4-.3.7-.7,1-1-.2,0-.5,0-.7,0,0,.3-.2.7-.2,1Z"/>
          <path class="cls-3" d="M124.6,12.1c.6-.1,1.1-.2,1.6-.2,2,0,2.4,1.3,2.1,2.4-.2.7-.7,1.6-1.6,2.1-1.1.6-2.3.7-3.6.7v-1.4c.2,0,.4,0,.6,0,.9,0,2.8-.1,3.1-1.4,0-.2.2-1-.9-1s-.9,0-3.6.7v-1.4s2.3-.5,2.3-.5Z"/>
          <path class="cls-3" d="M128.5,16.7c1.5-2,2.5-3.7,2.8-4.3-.5,0-.7,0-1.4,0l.4-1.5c.3,0,.9,0,1.7,0,.2-.5.4-.8.6-1.2h1.5c-.3.8-.3.9-.5,1.1.5,0,1-.1,1.6-.3l-.3,1.4c-1.2.2-1.9.3-2,.3-.7,1.4-1.9,3.5-3.1,5l-1.3-.6ZM133.6,14.8c-.5.3-.5.6-.6.6,0,.3.1.4,1.2.4s1.6-.1,2.1-.2l-.4,1.5c-.5,0-1.1.1-2,.1s-2.8,0-2.4-1.5c.2-.7.8-1.2,1.1-1.4l1.1.4ZM136.6,13.7c-.4,0-.9,0-1.7,0s-1.5,0-1.9.1l.5-1.3c.3,0,1-.1,2-.1s1.2,0,1.6,0l-.5,1.4Z"/>
          <path class="cls-3" d="M144,15.7c1.3,0,2.6-.6,3-1.9.3-1.1-.6-1.2-.9-1.2-.9,0-1.8.6-2.1.8-.3,1.2-.7,2.6-1,3.9h-1.5l.6-2.3c-.3.3-.5.5-1,1.1l-.8-1c.5-.5,1-.9,1.5-1.4.3-.2.7-.6,1-.9v-.2c-.2,0-.7.1-1.3.2l.2-1.5c.7,0,1,0,1.5,0l.3-1.3h1.5c-.4,1.4-.5,1.6-.6,1.9,1.1-.6,1.9-.6,2.2-.6,1.2,0,2.5.7,2,2.6-.6,2.1-2.6,3.1-4.4,3.3l-.2-1.4Z"/>
          <path class="cls-3" d="M148.6,16.7c1.5-2,2.5-3.7,2.8-4.3-.5,0-.7,0-1.4,0l.4-1.5c.3,0,.9,0,1.7,0,.2-.5.4-.8.6-1.2h1.5c-.3.8-.3.9-.5,1.1.5,0,1-.1,1.6-.3l-.3,1.4c-1.2.2-1.9.3-2,.3-.7,1.4-1.9,3.5-3.1,5l-1.3-.6ZM153.7,14.8c-.5.3-.5.6-.6.6,0,.3.1.4,1.2.4s1.6-.1,2.1-.2l-.4,1.5c-.5,0-1.1.1-2,.1s-2.8,0-2.4-1.5c.2-.7.8-1.2,1.1-1.4l1.1.4ZM156.7,13.7c-.4,0-.9,0-1.7,0s-1.5,0-1.9.1l.5-1.3c.3,0,1-.1,2-.1s1.2,0,1.6,0l-.5,1.4Z"/>
          <path class="cls-3" d="M161.1,10l-1.4,4.4c-.2.7-.4,1.4.7,1.4s2.1-.7,3.2-2.5l1.2.7c-1.1,1.6-2.6,3.3-4.8,3.3s-2.1-.5-2.2-1.5c0-.5.1-1.1.2-1.4l1.4-4.5h1.6Z"/>
          <path class="cls-3" d="M169,16.1c.9-.3,2.5-.8,3-2.5.1-.5.1-1.1-.2-1.5-.3-.3-.6-.4-.8-.5-.4,1-1,2.4-2.1,3.8-.6.9-1.2,1.4-2,1.4s-1.7-1.2-1.3-2.8c.6-2.1,2.6-3.8,5.1-3.8s3.4,1.4,2.8,3.4c-.7,2.7-3.4,3.5-4,3.7l-.6-1.2ZM167.1,14c-.2.7,0,1.2.1,1.2s.6-.6.7-.9c.5-.9,1-1.8,1.4-2.6-1.1.3-1.9,1.2-2.2,2.3Z"/>
          <path class="cls-3" d="M173.3,16.5c.4-.5,1.1-1.3,1.8-4l.7-2.8h7.5l-.7,2.7h-2.4v.4c-.1,0,2.5,0,2.5,0l-.3,1.2h-2.6v.5c-.1,0,2,0,2,0l-.8,3h-5.7l.8-3h2.1v-.5c.1,0-2.2,0-2.2,0-.4,1.2-1,2.5-1.9,3.6l-.9-1.1ZM176.4,12.9h2.3v-.4c.1,0-2.2,0-2.2,0v.4ZM181.6,10.9h-4.6v.5c-.1,0,4.5,0,4.5,0v-.5ZM180.1,15.6h-2.8l-.2.8h2.8l.2-.8Z"/>
          <path class="cls-3" d="M186.2,15.2c-.4.2-.7.4-1,.5v-.3c-.1,0-.2.3-.2.3-.5.2-1.4.5-2.7.8l.2-1.5c.2,0,.4,0,.8-.2l.6-2.1h-.7l.4-1.3h.7l.5-1.9h1.4l-.5,1.9h.4l-.4,1.3h-.4l-.5,1.7c.1,0,.2,0,.5-.2v.3c.5-.2,1-.6,1.2-.8h-1.1l.3-1.1h6l-.3,1.1h-3.5c-.1.2-.2.2-.3.3h3.5c-.8,2.9-1.1,3.5-2,3.5h-1.4v-.8c-.6.5-1.2.8-1.6.9l-.6-.7c1.8-.7,2.4-1.5,2.7-1.8h-.3c-.7.8-1.9,1.6-3.5,2l-.3-.9c.4,0,1.5-.3,2.5-1.1h-.4ZM186.8,9.8h5.2l-.7,2.8h-5.2l.7-2.8ZM187.7,11.5v.3c0,0,2.3,0,2.3,0v-.3c0,0-2.3,0-2.3,0ZM187.9,10.6v.3c0,0,2.3,0,2.3,0v-.3c0,0-2.3,0-2.3,0ZM188.6,16.5c.3,0,.5,0,.8-1.3h-.2c-.3.4-.6.8-1.1,1.3h.5Z"/>
          <path class="cls-3" d="M192.7,11.5h3.5l-.9,3.5h-2.2c-.1.4-.6,1.7-1.5,2.7l-.8-1.1c.8-.9.9-1.6,1.2-2.4l.7-2.7ZM192.9,9.8h4l-.3,1.3h-4l.3-1.3ZM193.8,12.7l-.3,1h.8l.3-1h-.8ZM199.6,13.4l-1.1,4.3h-1.4l1.1-4.3h-.7c-.6,2.5-1.6,3.5-2.6,4.3l-1-.9c1-.7,1.6-1.5,2.2-3.5l.9-3.3c1.2,0,2.5-.1,3.7-.5l.2,1.4c-1.4.4-2.4.4-2.8.4l-.2.7h2.7l-.4,1.4h-.6Z"/>
        </g>
      </g>
    </g>
  </g>
</svg>